<?xml version="1.0" encoding="UTF-8"?>
<svg id="Layer_1" xmlns="http://www.w3.org/2000/svg" version="1.1" viewBox="0 0 730.309 97.993">
  <!-- Generator: Adobe Illustrator 29.0.1, SVG Export Plug-In . SVG Version: 2.1.0 Build 192)  -->
  <defs>
    <style>
      .st0 {
        fill: #fff;
      }

      .st1 {
        fill: #ff4713;
      }
    </style>
  </defs>
  <g>
    <g>
      <rect class="st1" x="53.172" y="4.169" width="37.793" height="31.417"/>
      <polygon class="st1" points="40.097 36.856 40.097 4.169 2.079 4.169 2.079 74.873 40.097 36.856"/>
      <polygon class="st1" points="46.76 48.66 2.083 93.054 90.965 93.054 90.965 48.66 46.76 48.66"/>
    </g>
    <g>
      <path class="st0" d="M119.233,92.562V25.509h15.532l2.02,7.577h.632c1.767-2.694,3.997-4.629,6.693-5.809,2.693-1.178,5.682-1.768,8.966-1.768h8.334v17.426h-7.072c-3.535,0-6.588.675-9.155,2.02-2.569,1.348-4.504,3.242-5.809,5.683-1.306,2.442-1.957,5.388-1.957,8.839v33.084h-18.184Z"/>
      <path class="st0" d="M196.892,93.825c-6.819,0-12.691-1.368-17.616-4.104-4.925-2.735-8.713-6.693-11.365-11.87-2.652-5.177-3.977-11.469-3.977-18.878,0-7.24,1.326-13.449,3.977-18.626,2.652-5.177,6.46-9.155,11.428-11.933,4.967-2.778,10.817-4.167,17.553-4.167,6.481,0,12.186,1.41,17.11,4.23,4.925,2.821,8.691,6.819,11.302,11.996,2.608,5.177,3.914,10.966,3.914,17.363,0,1.263-.063,2.526-.189,3.789-.126,1.262-.274,2.316-.442,3.157h-51.773v-12.754h34.852c-.422-2.02-1.222-3.997-2.399-5.935-1.18-1.936-2.822-3.492-4.925-4.672-2.105-1.178-4.59-1.768-7.45-1.768-3.031,0-5.663.716-7.892,2.147-2.232,1.432-3.978,3.472-5.241,6.124-1.262,2.652-1.894,5.789-1.894,9.408,0,4.463.505,8.271,1.516,11.428,1.01,3.157,2.608,5.556,4.798,7.198,2.188,1.642,5.051,2.462,8.587,2.462,3.283,0,5.765-.568,7.45-1.705,1.683-1.137,3.199-2.841,4.546-5.114h19.321c-1.18,4.041-3.011,7.725-5.493,11.049-2.484,3.327-5.852,6.02-10.102,8.082-4.252,2.062-9.451,3.094-15.595,3.094Z"/>
      <path class="st0" d="M265.964,93.825c-5.641,0-10.588-.864-14.838-2.589-4.252-1.724-7.64-4.272-10.166-7.64-2.525-3.366-4.167-7.407-4.925-12.122h19.321c.335,1.937,1.452,3.599,3.346,4.988,1.894,1.389,4.356,2.084,7.387,2.084,3.871,0,6.713-.525,8.523-1.578,1.81-1.052,2.715-2.419,2.715-4.104,0-1.263-.548-2.293-1.642-3.094-1.095-.799-2.484-1.43-4.167-1.894-1.685-.462-4.041-.989-7.072-1.578-5.304-1.093-9.682-2.273-13.132-3.536-3.453-1.263-6.44-3.346-8.966-6.25-2.526-2.905-3.789-6.882-3.789-11.933,0-3.956,1.051-7.428,3.157-10.418,2.103-2.987,5.219-5.386,9.344-7.198,4.123-1.809,9.092-2.715,14.901-2.715,5.639,0,10.501.821,14.585,2.462,4.082,1.641,7.387,4.041,9.912,7.198,2.526,3.157,4.124,6.967,4.799,11.428h-19.194c-.338-1.768-1.306-3.157-2.904-4.167-1.6-1.011-3.999-1.516-7.198-1.516-2.695,0-4.842.442-6.44,1.326-1.6.884-2.399,2.083-2.399,3.599,0,1.263.568,2.295,1.705,3.094,1.137.801,2.545,1.432,4.23,1.894,1.683.464,3.997.991,6.945,1.578,5.303,1.095,9.66,2.273,13.069,3.536,3.41,1.263,6.418,3.346,9.029,6.251,2.608,2.904,3.915,6.882,3.915,11.933,0,4.463-1.18,8.271-3.536,11.428-2.358,3.157-5.767,5.537-10.228,7.134-4.463,1.598-9.893,2.4-16.289,2.4Z"/>
      <path class="st0" d="M306.372,92.562v-45.525h18.184v45.525h-18.184Z"/>
      <path class="st1" d="M306.372,42.126v-16.672h18.184v16.672h-18.184Z"/>
      <path class="st0" d="M339.328,92.562V25.509h15.532l2.02,7.577h.632c2.188-2.861,4.798-5.051,7.829-6.567,3.031-1.516,6.27-2.273,9.723-2.273,4.881,0,9.175,1.095,12.88,3.283,3.703,2.19,6.586,5.325,8.65,9.408,2.061,4.084,3.094,8.902,3.094,14.459v41.166h-17.931v-38.514c0-2.861-.464-5.304-1.389-7.324-.927-2.02-2.295-3.577-4.104-4.672-1.811-1.093-3.936-1.642-6.377-1.642-2.525,0-4.715.568-6.566,1.705-1.853,1.137-3.284,2.737-4.294,4.799-1.01,2.064-1.515,4.441-1.515,7.135v38.514h-18.184Z"/>
      <path class="st0" d="M425.321,92.562l-18.184-67.052h18.058l11.365,45.333h.632l11.996-45.333h17.173l11.996,45.333h.632l11.238-45.333h17.805l-18.31,67.052h-20.205l-11.617-41.924h-.631l-11.617,41.924h-20.331Z"/>
      <path class="st0" d="M546.04,93.825c-6.819,0-12.691-1.368-17.616-4.104-4.925-2.735-8.713-6.713-11.365-11.933-2.652-5.219-3.977-11.491-3.977-18.815s1.326-13.553,3.977-18.689c2.652-5.134,6.44-9.092,11.365-11.87,4.925-2.778,10.797-4.167,17.616-4.167,6.734,0,12.584,1.389,17.552,4.167,4.966,2.778,8.776,6.736,11.428,11.87,2.652,5.136,3.978,11.365,3.978,18.689s-1.326,13.596-3.978,18.815c-2.652,5.22-6.462,9.198-11.428,11.933-4.968,2.737-10.818,4.104-17.552,4.104ZM546.04,77.661c2.778,0,5.282-.673,7.513-2.021,2.229-1.346,4.019-3.429,5.367-6.25,1.346-2.82,2.02-6.292,2.02-10.418s-.675-7.577-2.02-10.355c-1.348-2.778-3.137-4.84-5.367-6.187-2.232-1.346-4.735-2.021-7.513-2.021-2.863,0-5.41.675-7.64,2.021-2.232,1.347-3.999,3.409-5.304,6.187-1.306,2.778-1.957,6.231-1.957,10.355s.652,7.598,1.957,10.418c1.304,2.821,3.072,4.905,5.304,6.25,2.229,1.348,4.777,2.021,7.64,2.021Z"/>
      <path class="st0" d="M590.74,92.562V25.509h15.532l2.02,7.577h.632c1.767-2.694,3.997-4.629,6.693-5.809,2.693-1.178,5.682-1.768,8.966-1.768h8.334v17.426h-7.072c-3.535,0-6.588.675-9.155,2.02-2.569,1.348-4.504,3.242-5.809,5.683-1.306,2.442-1.957,5.388-1.957,8.839v33.084h-18.184Z"/>
      <path class="st0" d="M642.891,92.562V4.169h18.184v51.015l24.498-29.675h20.962l-27.023,32.579,28.917,34.473h-21.467l-25.887-30.811v30.811h-18.184Z"/>
    </g>
  </g>
  <path class="st0" d="M709.482,35.727v-.052c0-5.101,4.144-9.425,9.4-9.425s9.348,4.272,9.348,9.374v.052c0,5.101-4.144,9.425-9.4,9.425s-9.348-4.272-9.348-9.374ZM727.142,35.675v-.052c0-4.583-3.548-8.338-8.26-8.338-4.739,0-8.312,3.807-8.312,8.39v.052c0,4.583,3.548,8.338,8.26,8.338,4.739,0,8.312-3.806,8.312-8.39ZM714.739,30.419h4.635c1.58,0,2.667.414,3.366,1.113.57.57.854,1.321.854,2.279v.052c0,1.528-.803,2.538-2.045,3.056l2.382,3.47h-3.185l-2.021-3.03h-1.217v3.03h-2.771v-9.969ZM719.322,35.209c.958,0,1.502-.44,1.502-1.166v-.052c0-.803-.596-1.191-1.527-1.191h-1.787v2.408h1.812Z"/>
</svg>