<svg xmlns="http://www.w3.org/2000/svg" fill="none" viewBox="15.323 4.776119402985074 167.757 22.28855721393035" style="max-height: 500px" width="167.757" height="22.28855721393035">
<path fill="#F74614" d="M27.9602 12.7083H36.8736V5.28076H27.9602V12.7083ZM24.8767 13.0085V5.28076H15.9102V21.9964L24.8767 13.0085ZM26.4481 15.7995L15.9111 26.295H36.8739V15.7995H26.4481Z"/>
<mask height="40" width="199" y="0" x="0" maskUnits="userSpaceOnUse" style="mask-type:luminance" id="mask0_130_394">
<path fill="white" d="M0 0.000217438H198.559V39.3638H0V0.000217438Z"/>
</mask>
<g mask="url(#mask0_130_394)">
<path fill="white" d="M43.5391 26.1787V10.3267H47.2023L47.6787 12.1178H47.8277C48.2445 11.4809 48.7704 11.0234 49.4063 10.7444C50.0414 10.4659 50.7464 10.3267 51.5207 10.3267H53.4862V14.4465H51.8183C50.9846 14.4465 50.2645 14.6058 49.6591 14.924C49.0535 15.2425 48.5969 15.6903 48.2893 16.2674C47.9813 16.8449 47.8277 17.5417 47.8277 18.3573V26.1789L43.5391 26.1787ZM61.8549 26.4773C60.2464 26.4773 58.8617 26.1539 57.7002 25.507C56.5388 24.8604 55.6452 23.9247 55.0197 22.7008C54.3945 21.4768 54.0818 19.9891 54.0818 18.2377C54.0818 16.526 54.3945 15.0581 55.0197 13.8342C55.6452 12.6102 56.5433 11.6698 57.715 11.013C58.8865 10.3562 60.2662 10.0278 61.8549 10.0278C63.3832 10.0278 64.729 10.3612 65.8903 11.0279C67.0518 11.6948 67.9403 12.64 68.5558 13.8639C69.1712 15.0879 69.479 16.4567 69.479 17.9689C69.479 18.2675 69.4643 18.5661 69.4342 18.8647C69.4047 19.163 69.3698 19.4122 69.3301 19.611H57.1195V16.5955H65.3393C65.2398 16.118 65.0514 15.6506 64.7733 15.1926C64.495 14.7349 64.108 14.3668 63.612 14.0878C63.1155 13.8096 62.5294 13.6699 61.8549 13.6699C61.14 13.6699 60.5193 13.8394 59.9936 14.1774C59.4672 14.516 59.0554 14.9983 58.7575 15.6253C58.4598 16.2522 58.3108 16.9941 58.3108 17.8495C58.3108 18.9046 58.4299 19.8049 58.6683 20.5513C58.9065 21.2976 59.2834 21.8648 59.7999 22.253C60.316 22.641 60.991 22.8351 61.8252 22.8351C62.5995 22.8351 63.1848 22.7008 63.5823 22.432C63.9792 22.1634 64.3367 21.7603 64.6544 21.2229H69.211C68.9395 22.1647 68.5007 23.0496 67.9155 23.8351C67.3297 24.6217 66.5353 25.2583 65.533 25.7458C64.5301 26.2333 63.3039 26.4773 61.8549 26.4773ZM78.1455 26.4773C76.8151 26.4773 75.6483 26.273 74.646 25.8652C73.6431 25.4576 72.8441 24.8552 72.2485 24.0592C71.653 23.2632 71.2658 22.3081 71.087 21.1931H75.6436C75.7228 21.6513 75.986 22.044 76.433 22.3724C76.8797 22.7008 77.4603 22.8651 78.1752 22.8651C79.0879 22.8651 79.7585 22.741 80.1853 22.4918C80.6122 22.2431 80.8259 21.9199 80.8259 21.5215C80.8259 21.2229 80.6962 20.9794 80.4386 20.79C80.1804 20.6011 79.8528 20.452 79.4559 20.3423C79.0585 20.233 78.5028 20.1084 77.7879 19.9692C76.5372 19.7106 75.5044 19.4318 74.6908 19.1332C73.8764 18.8346 73.1719 18.3422 72.5761 17.6554C71.9806 16.9688 71.6827 16.0284 71.6827 14.8342C71.6827 13.8989 71.9304 13.0781 72.4273 12.3712C72.9233 11.665 73.6582 11.0979 74.6311 10.6695C75.6037 10.2418 76.7754 10.0278 78.1452 10.0278C79.4754 10.0278 80.6221 10.2217 81.5854 10.6099C82.5481 10.9979 83.3276 11.5653 83.9231 12.3116C84.5188 13.058 84.8957 13.9588 85.0549 15.0134H80.528C80.4483 14.5954 80.2198 14.267 79.8431 14.0283C79.4655 13.7892 78.8997 13.6699 78.1455 13.6699C77.5099 13.6699 77.0035 13.7743 76.6266 13.9833C76.2493 14.1923 76.0606 14.476 76.0606 14.8342C76.0606 15.1328 76.1945 15.3768 76.4627 15.5657C76.7309 15.7551 77.0629 15.9042 77.4603 16.0135C77.8575 16.1232 78.4033 16.2477 79.0985 16.3865C80.3493 16.6454 81.3769 16.9239 82.1809 17.2225C82.9851 17.5211 83.6945 18.0138 84.3103 18.7003C84.9254 19.3869 85.2337 20.3274 85.2337 21.5215C85.2337 22.5766 84.9552 23.4769 84.3997 24.2233C83.8436 24.9697 83.0394 25.5323 81.987 25.9099C80.9346 26.2879 79.654 26.4773 78.1455 26.4773ZM87.6757 15.4158H91.9644V26.1787H87.6757V15.4158Z"/>
<path fill="#F74614" d="M87.6758 10.3135H91.9645V14.255H87.6758V10.3135Z"/>
<path fill="white" d="M95.4492 26.1789V10.3269H99.1124L99.5888 12.118H99.7379C100.254 11.4418 100.87 10.9241 101.584 10.5657C102.299 10.2072 103.063 10.0283 103.878 10.0283C105.028 10.0283 106.041 10.2872 106.915 10.8044C107.789 11.3222 108.469 12.0634 108.955 13.0284C109.442 13.9942 109.685 15.1332 109.685 16.447V26.1791H105.456V17.0738C105.456 16.3976 105.346 15.8198 105.128 15.3422C104.909 14.8647 104.587 14.4966 104.16 14.2377C103.733 13.9791 103.232 13.8495 102.656 13.8495C102.061 13.8495 101.544 13.9838 101.108 14.2524C100.67 14.5212 100.333 14.8994 100.095 15.3872C99.8568 15.8749 99.7377 16.4368 99.7377 17.0738V26.1791L95.4492 26.1789ZM115.73 26.1789L111.442 10.3269H115.701L118.381 21.0442H118.53L121.359 10.3269H125.41L128.239 21.0442H128.388L131.038 10.3269H135.238L130.919 26.1791H126.154L123.414 16.2676H123.266L120.525 26.1791L115.73 26.1789ZM144.202 22.6561C144.857 22.6561 145.448 22.4972 145.974 22.1785C146.5 21.8605 146.922 21.3676 147.24 20.7009C147.557 20.0342 147.716 19.2133 147.716 18.2379C147.716 17.2629 147.557 16.4468 147.24 15.7898C146.922 15.133 146.5 14.6455 145.974 14.3271C145.448 14.0088 144.857 13.8493 144.202 13.8493C143.527 13.8493 142.926 14.0088 142.4 14.3268C141.874 14.6455 141.457 15.133 141.149 15.7898C140.841 16.4468 140.688 17.2627 140.688 18.2379C140.688 19.2133 140.841 20.0342 141.149 20.7009C141.457 21.3676 141.874 21.8605 142.4 22.1785C142.926 22.4972 143.527 22.6561 144.202 22.6561ZM144.202 26.4775C142.594 26.4775 141.209 26.1543 140.047 25.5073C138.886 24.8609 137.992 23.9204 137.367 22.6861C136.741 21.452 136.429 19.9694 136.429 18.2379C136.429 16.5064 136.741 15.0337 137.367 13.8192C137.992 12.6057 138.886 11.67 140.047 11.013C141.209 10.3564 142.594 10.028 144.202 10.028C145.79 10.028 147.17 10.3564 148.342 11.0132C149.513 11.67 150.412 12.6057 151.037 13.8195C151.663 15.0337 151.975 16.5064 151.975 18.2379C151.975 19.9694 151.663 21.4522 151.037 22.6861C150.412 23.9202 149.513 24.8609 148.342 25.5073C147.17 26.1543 145.79 26.4775 144.202 26.4775ZM154.745 26.1789V10.3269H158.408L158.884 12.118H159.033C159.45 11.4811 159.976 11.0236 160.612 10.7446C161.247 10.4661 161.952 10.3269 162.726 10.3269H164.692V14.4467H163.024C162.19 14.4467 161.47 14.606 160.865 14.9243C160.259 15.2427 159.802 15.6905 159.495 16.2676C159.187 16.8451 159.033 17.5419 159.033 18.3575V26.1791L154.745 26.1789ZM167.044 26.1789V5.28125H171.333V17.3421L177.111 10.3266H182.054L175.681 18.0291L182.501 26.1789H177.438L171.333 18.8949V26.1789H167.044Z"/>
</g>
</svg>