<svg width="1280" height="8160" viewBox="0 0 1280 8160" fill="none" xmlns="http://www.w3.org/2000/svg">
<g clip-path="url(#clip0_167_351)">
<g filter="url(#filter0_f_167_351)">
<path d="M202.373 288.282C127.561 239.872 99.5223 230.251 94.8549 231.493V212.128C185.037 208.653 389.406 277.262 389.406 231.493C389.406 231.441 389.405 231.39 389.405 231.339C389.272 220.752 375.524 224.794 389.405 231.339C400.511 236.576 429.307 243.415 496.924 245.644C649.45 250.671 569.436 263.704 642.449 302.433C715.461 341.162 715.961 304.854 725.963 350.099C735.965 395.345 798.476 432.77 670.454 485.649C542.432 538.529 455.417 567.017 413.91 578.561C380.704 587.796 245.047 641.867 181.37 667.749C145.697 679.355 133.361 704.876 119.359 714.111C101.856 725.655 125.86 756.75 125.86 778.721C125.86 791.884 87.2673 819.416 51.1629 852.149C38.7231 888.154 26.9692 931.018 22.9692 974.051C30.5807 982.221 38.1279 994.992 44.088 1016.12C68.092 1101.21 120.601 1039.39 207.116 1016.12C293.631 992.846 177.869 1007.18 236.879 954.117C284.088 911.665 374.57 910.609 413.91 915.388C455.417 922.712 538.431 938.663 538.431 943.876C538.431 950.393 618.445 994.149 642.449 1030.27C666.453 1066.39 690.957 1058.76 697.958 1163.21C704.959 1267.67 631.947 1231.92 586.939 1331.16C541.932 1430.4 579.938 1341.4 538.431 1396.89C496.924 1452.38 472.92 1446.05 437.914 1458.89C402.908 1471.74 420.911 1501.53 323.894 1528.53C226.878 1555.53 361.901 1551.8 108.857 1549.2C-144.186 1546.59 39.8453 1496.32 22.3423 1479.56C4.83928 1462.8 246.881 1531.32 226.377 1479.56C205.874 1427.8 181.37 1425.38 274.886 1413.83C368.402 1402.29 274.886 1349.22 358.4 1331.16C441.914 1313.1 528.429 1218.7 538.431 1190.4C548.433 1162.1 507.426 1142.55 486.422 1124.49C465.418 1106.42 462.418 1080.73 455.417 1030.27C448.415 979.812 417.41 989.122 389.406 965.847C361.401 942.573 365.401 983.908 323.894 1007.18C282.387 1030.46 327.395 1102.7 323.894 1133.61C320.394 1164.52 392.906 1253.71 150.364 1181.28C38.2351 1147.79 14.9259 1060.58 22.9692 974.051C-0.0744972 949.313 -23.7065 966.74 -5.66246 922.091C3.96036 898.28 27.0046 874.05 51.1629 852.149C67.8162 803.948 85.6989 768.038 87.8537 760.474C94.8549 735.896 14.8411 741.296 87.8537 693.443C160.866 645.591 157.366 644.474 195.372 626.413C233.379 608.352 202.373 614.683 236.879 592.898C271.385 571.113 264.884 537.225 271.885 510.227C278.887 483.229 295.889 439.287 309.892 382.497C323.894 325.708 295.889 348.796 202.373 288.282Z" fill="#136C61"/>
<path d="M94.8548 231.493C99.5223 230.251 127.561 239.872 202.373 288.282C295.889 348.796 323.894 325.708 309.892 382.497C295.889 439.287 278.887 483.229 271.885 510.227C264.884 537.225 271.385 571.113 236.879 592.898C202.373 614.683 233.379 608.352 195.372 626.413C157.366 644.474 160.866 645.591 87.8537 693.443C14.8411 741.296 94.8549 735.896 87.8537 760.474C80.8525 785.052 -92.1773 1108.85 150.364 1181.28C392.906 1253.71 320.394 1164.52 323.894 1133.61C327.395 1102.7 282.387 1030.46 323.894 1007.18C365.401 983.908 361.401 942.573 389.406 965.847C417.41 989.122 448.415 979.812 455.417 1030.27C462.418 1080.73 465.418 1106.42 486.422 1124.49C507.426 1142.55 548.433 1162.1 538.431 1190.4C528.429 1218.7 441.914 1313.1 358.4 1331.16C274.886 1349.22 368.402 1402.29 274.886 1413.83C181.37 1425.38 205.874 1427.8 226.377 1479.56C246.881 1531.32 4.83928 1462.8 22.3423 1479.56C39.8453 1496.32 -144.186 1546.59 108.857 1549.2C361.901 1551.8 226.878 1555.53 323.894 1528.53C420.911 1501.53 402.908 1471.74 437.914 1458.89C472.92 1446.05 496.924 1452.38 538.431 1396.89C579.938 1341.4 541.932 1430.4 586.939 1331.16C631.947 1231.92 704.959 1267.67 697.958 1163.21C690.957 1058.76 666.453 1066.39 642.449 1030.27C618.445 994.149 538.431 950.393 538.431 943.876C538.431 938.663 455.417 922.712 413.91 915.388C374.57 910.609 284.088 911.665 236.879 954.117C177.869 1007.18 293.631 992.846 207.116 1016.12C120.601 1039.39 68.092 1101.21 44.088 1016.12C20.0839 931.029 -29.6665 981.488 -5.66246 922.091C18.3416 862.695 125.86 800.692 125.86 778.721C125.86 756.75 101.856 725.655 119.359 714.111C133.361 704.876 145.697 679.355 181.37 667.749C245.047 641.867 380.704 587.796 413.91 578.561C455.417 567.017 542.432 538.529 670.454 485.649C798.476 432.77 735.965 395.345 725.963 350.099C715.961 304.854 715.461 341.162 642.449 302.433C569.436 263.704 649.45 250.671 496.924 245.644C344.398 240.616 389.406 212.128 389.406 231.493C389.406 277.262 185.037 208.653 94.8548 212.128V231.493Z" stroke="#62CCDB"/>
</g>
<g filter="url(#filter1_f_167_351)">
<path d="M504.373 1982.59C429.561 1937.79 401.522 1928.89 396.855 1930.04V1912.12C487.037 1908.9 691.406 1972.39 691.406 1930.04C691.406 1929.99 691.405 1929.94 691.405 1929.89C691.272 1920.1 677.524 1923.84 691.405 1929.89C702.511 1934.74 731.307 1941.07 798.924 1943.13C951.45 1947.78 871.436 1959.84 944.449 1995.68C1017.46 2031.52 1017.96 1997.92 1027.96 2039.79C1037.96 2081.65 1100.48 2116.28 972.454 2165.21C844.432 2214.14 757.417 2240.5 715.91 2251.19C682.704 2259.73 547.047 2309.76 483.37 2333.71C447.697 2344.45 435.361 2368.07 421.359 2376.61C403.856 2387.29 427.86 2416.07 427.86 2436.4C427.86 2448.58 389.267 2474.05 353.163 2504.34C340.723 2537.66 328.969 2577.32 324.969 2617.14C332.581 2624.7 340.128 2636.52 346.088 2656.07C370.092 2734.8 422.601 2677.6 509.116 2656.07C595.631 2634.53 479.869 2647.8 538.879 2598.69C586.088 2559.41 676.57 2558.44 715.91 2562.86C757.417 2569.63 840.431 2584.39 840.431 2589.22C840.431 2595.25 920.445 2635.74 944.449 2669.16C968.453 2702.58 992.957 2695.52 999.958 2792.17C1006.96 2888.83 933.947 2855.75 888.939 2947.58C843.932 3039.41 881.938 2957.06 840.431 3008.4C798.924 3059.74 774.92 3053.88 739.914 3065.77C704.908 3077.66 722.911 3105.23 625.894 3130.21C528.878 3155.19 663.901 3151.74 410.857 3149.33C157.814 3146.92 341.845 3100.4 324.342 3084.9C306.839 3069.39 548.881 3132.79 528.377 3084.9C507.874 3037 483.37 3034.76 576.886 3024.08C670.402 3013.4 576.886 2964.29 660.4 2947.58C743.914 2930.87 830.429 2843.52 840.431 2817.33C850.433 2791.14 809.426 2773.05 788.422 2756.34C767.418 2739.63 764.418 2715.85 757.417 2669.16C750.415 2622.47 719.41 2631.08 691.406 2609.55C663.401 2588.01 667.401 2626.26 625.894 2647.8C584.387 2669.33 629.395 2736.18 625.894 2764.78C622.394 2793.38 694.906 2875.91 452.364 2808.89C340.235 2777.9 316.926 2697.21 324.969 2617.14C301.926 2594.25 278.294 2610.37 296.338 2569.06C305.96 2547.03 329.005 2524.61 353.163 2504.34C369.816 2459.74 387.699 2426.51 389.854 2419.51C396.855 2396.77 316.841 2401.77 389.854 2357.49C462.866 2313.21 459.366 2312.18 497.372 2295.46C535.379 2278.75 504.373 2284.61 538.879 2264.45C573.385 2244.29 566.884 2212.94 573.885 2187.95C580.887 2162.97 597.889 2122.31 611.892 2069.76C625.894 2017.22 597.889 2038.58 504.373 1982.59Z" fill="#644B87"/>
<path d="M396.855 1930.04C401.522 1928.89 429.561 1937.79 504.373 1982.59C597.889 2038.58 625.894 2017.22 611.892 2069.76C597.889 2122.31 580.887 2162.97 573.885 2187.95C566.884 2212.94 573.385 2244.29 538.879 2264.45C504.373 2284.61 535.379 2278.75 497.372 2295.46C459.366 2312.18 462.866 2313.21 389.854 2357.49C316.841 2401.77 396.855 2396.77 389.854 2419.51C382.852 2442.25 209.823 2741.87 452.364 2808.89C694.906 2875.91 622.394 2793.38 625.894 2764.78C629.395 2736.18 584.387 2669.33 625.894 2647.8C667.401 2626.26 663.401 2588.01 691.406 2609.55C719.41 2631.08 750.415 2622.47 757.417 2669.16C764.418 2715.85 767.418 2739.63 788.422 2756.34C809.426 2773.05 850.433 2791.14 840.431 2817.33C830.429 2843.52 743.914 2930.87 660.4 2947.58C576.886 2964.29 670.402 3013.4 576.886 3024.08C483.37 3034.76 507.874 3037 528.377 3084.9C548.881 3132.79 306.839 3069.39 324.342 3084.9C341.845 3100.4 157.814 3146.92 410.857 3149.33C663.901 3151.74 528.878 3155.19 625.894 3130.21C722.911 3105.23 704.908 3077.66 739.914 3065.77C774.92 3053.88 798.924 3059.74 840.431 3008.4C881.938 2957.06 843.932 3039.41 888.939 2947.58C933.947 2855.75 1006.96 2888.83 999.958 2792.18C992.957 2695.52 968.453 2702.58 944.449 2669.16C920.445 2635.74 840.431 2595.25 840.431 2589.22C840.431 2584.39 757.417 2569.63 715.91 2562.86C676.57 2558.44 586.088 2559.41 538.879 2598.69C479.869 2647.8 595.631 2634.53 509.116 2656.07C422.601 2677.6 370.092 2734.8 346.088 2656.07C322.084 2577.33 272.334 2624.02 296.338 2569.06C320.342 2514.1 427.86 2456.73 427.86 2436.4C427.86 2416.07 403.856 2387.29 421.359 2376.61C435.361 2368.07 447.697 2344.45 483.37 2333.71C547.047 2309.76 682.704 2259.73 715.91 2251.19C757.417 2240.5 844.432 2214.14 972.454 2165.21C1100.48 2116.28 1037.96 2081.65 1027.96 2039.79C1017.96 1997.92 1017.46 2031.52 944.449 1995.68C871.436 1959.84 951.45 1947.78 798.924 1943.13C646.398 1938.48 691.406 1912.12 691.406 1930.04C691.406 1972.39 487.037 1908.9 396.855 1912.12V1930.04Z" stroke="#62CCDB"/>
</g>
<g filter="url(#filter2_f_167_351)">
<path d="M116.374 3667.19C41.5611 3622.64 13.5228 3613.79 8.85535 3614.94V3597.12C99.0375 3593.92 303.406 3657.05 303.406 3614.94C303.406 3614.89 303.406 3614.84 303.405 3614.79C303.273 3605.05 289.525 3608.77 303.405 3614.79C314.511 3619.61 343.308 3625.9 410.924 3627.96C563.45 3632.58 483.436 3644.57 556.449 3680.21C629.462 3715.84 629.962 3682.43 639.963 3724.06C649.965 3765.69 712.476 3800.13 584.454 3848.78C456.432 3897.44 369.417 3923.65 327.91 3934.27C294.704 3942.77 159.048 3992.52 95.3701 4016.33C59.6974 4027.01 47.3619 4050.49 33.3595 4058.99C15.8564 4069.61 39.8605 4098.22 39.8605 4118.43C39.8605 4130.55 1.26773 4155.88 -34.8367 4185.99C-47.2765 4219.12 -59.0304 4258.56 -63.0303 4298.15C-55.4189 4305.67 -47.8716 4317.42 -41.9116 4336.86C-32.4159 4367.83 -36.0271 4397.82 -38.5057 4421.44C-27.2411 4438.29 -11.784 4453.35 8.85535 4465.76C95.3702 4444.34 126.875 4521.03 185.886 4472.2C204.931 4456.44 221.333 4441.77 236.708 4430.15C229.994 4397.88 202.514 4346.89 237.895 4328.64C266.655 4313.8 285.331 4365.09 303.406 4405.12C324.78 4408.59 329.015 4408.49 352.558 4407.57C361.182 4369.7 365.209 4321.98 369.417 4349.88C373.105 4374.34 375.683 4392.47 380.366 4406.58C405.023 4405.85 442.055 4405.12 500.94 4405.12C576.509 4405.12 428.427 4576.26 452.431 4609.5C476.435 4642.74 604.957 4376.09 611.959 4472.2C618.96 4568.31 545.947 4535.42 500.94 4626.73C455.932 4718.04 493.938 4636.15 452.431 4687.2C410.924 4738.26 386.92 4732.43 351.914 4744.25C316.908 4756.07 334.911 4783.48 237.895 4808.33C140.878 4833.17 317.408 5140.4 64.3644 5138C-188.679 5135.6 -4.64754 5089.35 -22.1505 5073.93C-39.6535 5058.51 160.881 4810.9 140.378 4763.27C119.874 4715.64 95.3699 4713.42 188.886 4702.79C282.402 4692.17 188.886 4643.35 272.4 4626.73C355.915 4610.11 442.429 4523.25 452.431 4497.21C462.433 4471.17 421.426 4453.19 400.422 4436.57C390.482 4428.7 384.574 4419.27 380.366 4406.58C368.636 4406.94 359.707 4407.29 352.558 4407.57C346.834 4432.71 339.083 4453.51 327.91 4444.96C319.31 4438.39 311.417 4422.86 303.406 4405.12C279.936 4402.5 259.445 4412.98 236.708 4430.15C237.871 4435.74 238.411 4440.77 237.895 4444.96C234.394 4473.4 306.907 4555.46 64.3649 4488.82C42.6777 4482.86 24.3131 4475.05 8.85535 4465.76C-43.4354 4478.7 -42.2926 4457.51 -38.5057 4421.44C-62.4242 4385.66 -67.4408 4341.81 -63.0303 4298.15C-86.074 4275.39 -109.706 4291.43 -91.6621 4250.35C-82.0392 4228.44 -58.995 4206.15 -34.8367 4185.99C-18.1834 4141.64 -0.300728 4108.61 1.85411 4101.64C8.85532 4079.03 -71.1585 4084 1.85406 4039.97C74.8666 3995.94 71.366 3994.92 109.373 3978.3C147.379 3961.68 116.374 3967.5 150.88 3947.46C185.386 3927.42 178.884 3896.24 185.886 3871.4C192.887 3846.55 209.89 3806.12 223.892 3753.87C237.895 3701.62 209.89 3722.86 116.374 3667.19Z" fill="#3782AF"/>
<path d="M8.85535 3614.94C13.5228 3613.79 41.5611 3622.64 116.374 3667.19C209.89 3722.86 237.895 3701.62 223.892 3753.87C209.89 3806.12 192.887 3846.55 185.886 3871.4C178.884 3896.24 185.386 3927.42 150.88 3947.46C116.374 3967.5 147.379 3961.68 109.373 3978.3C71.366 3994.91 74.8666 3995.94 1.85406 4039.97C-71.1585 4084 8.85531 4079.03 1.85411 4101.64C-5.14709 4124.26 -178.177 4422.18 64.3649 4488.82C306.907 4555.46 234.394 4473.4 237.895 4444.96C241.395 4416.52 196.387 4350.05 237.895 4328.64C279.402 4307.22 299.905 4423.55 327.91 4444.96C355.915 4466.38 362.416 4303.46 369.417 4349.88C376.418 4396.31 379.419 4419.95 400.422 4436.57C421.426 4453.19 462.433 4471.17 452.431 4497.21C442.429 4523.25 355.915 4610.11 272.4 4626.73C188.886 4643.35 282.402 4692.17 188.886 4702.79C95.3699 4713.42 119.874 4715.64 140.378 4763.27C160.881 4810.9 -39.6535 5058.51 -22.1505 5073.93C-4.64754 5089.35 -188.679 5135.6 64.3644 5138C317.408 5140.4 140.878 4833.17 237.895 4808.33C334.911 4783.48 316.908 4756.07 351.914 4744.25C386.92 4732.43 410.924 4738.26 452.431 4687.2C493.938 4636.15 455.932 4718.04 500.94 4626.73C545.947 4535.42 618.96 4568.31 611.959 4472.2C604.957 4376.09 476.435 4642.74 452.431 4609.5C428.427 4576.26 576.509 4405.12 500.94 4405.12C321.787 4405.12 344.913 4411.86 303.406 4405.12C264.066 4400.72 233.094 4433.14 185.886 4472.2C126.875 4521.03 95.3702 4444.34 8.85535 4465.76C-77.6595 4487.17 -17.9076 4415.15 -41.9116 4336.86C-65.9156 4258.57 -115.666 4305 -91.6621 4250.35C-67.658 4195.7 39.8605 4138.65 39.8605 4118.43C39.8605 4098.22 15.8564 4069.61 33.3595 4058.99C47.3619 4050.49 59.6974 4027.01 95.3701 4016.33C159.048 3992.52 294.704 3942.77 327.91 3934.27C369.417 3923.65 456.432 3897.44 584.454 3848.78C712.476 3800.13 649.965 3765.69 639.963 3724.06C629.962 3682.43 629.462 3715.84 556.449 3680.21C483.436 3644.57 563.45 3632.58 410.924 3627.96C258.398 3623.33 303.406 3597.12 303.406 3614.94C303.406 3657.05 99.0375 3593.92 8.85535 3597.12V3614.94Z" stroke="#3782AF"/>
</g>
<g filter="url(#filter3_f_167_351)">
<path d="M1047.42 4103.19C972.603 4058.64 944.565 4049.79 939.897 4050.94V4033.12C1030.08 4029.92 1234.45 4093.05 1234.45 4050.94C1234.45 4050.89 1234.45 4050.84 1234.45 4050.79C1234.31 4041.05 1220.57 4044.77 1234.45 4050.79C1245.55 4055.61 1274.35 4061.9 1341.97 4063.96C1494.49 4068.58 1414.48 4080.57 1487.49 4116.21C1560.5 4151.84 1561 4118.43 1571.01 4160.06C1581.01 4201.69 1643.52 4236.13 1515.5 4284.78C1387.47 4333.44 1300.46 4359.65 1258.95 4370.27C1225.75 4378.77 1090.09 4428.52 1026.41 4452.33C990.739 4463.01 978.404 4486.49 964.401 4494.99C946.898 4505.61 970.902 4534.22 970.902 4554.43C970.902 4566.55 932.309 4591.88 896.205 4621.99C883.765 4655.12 872.011 4694.56 868.011 4734.15C875.623 4741.67 883.17 4753.42 889.13 4772.86C898.626 4803.83 895.015 4833.82 892.536 4857.44C903.801 4874.29 919.258 4889.35 939.897 4901.76C1026.41 4880.34 1057.92 4957.03 1116.93 4908.2C1135.97 4892.44 1152.37 4877.77 1167.75 4866.15C1161.04 4833.88 1133.56 4782.89 1168.94 4764.64C1197.7 4749.8 1216.37 4801.09 1234.45 4841.12C1255.82 4844.59 1260.06 4844.49 1283.6 4843.57C1292.22 4805.7 1296.25 4757.98 1300.46 4785.88C1304.15 4810.34 1306.72 4828.47 1311.41 4842.58C1336.06 4841.85 1373.1 4841.12 1431.98 4841.12C1507.55 4841.12 1359.47 5012.26 1383.47 5045.5C1407.48 5078.74 1536 4812.09 1543 4908.2C1550 5004.31 1476.99 4971.42 1431.98 5062.73C1386.97 5154.04 1424.98 5072.15 1383.47 5123.2C1341.97 5174.26 1317.96 5168.43 1282.96 5180.25C1247.95 5192.07 1265.95 5219.48 1168.94 5244.33C1071.92 5269.17 1248.45 5576.4 995.406 5574C742.363 5571.6 926.394 5525.35 908.891 5509.93C891.388 5494.51 1091.92 5246.9 1071.42 5199.27C1050.92 5151.64 1026.41 5149.42 1119.93 5138.79C1213.44 5128.17 1119.93 5079.35 1203.44 5062.73C1286.96 5046.11 1373.47 4959.25 1383.47 4933.21C1393.47 4907.17 1352.47 4889.19 1331.46 4872.57C1321.52 4864.7 1315.62 4855.27 1311.41 4842.58C1299.68 4842.94 1290.75 4843.29 1283.6 4843.57C1277.88 4868.71 1270.13 4889.51 1258.95 4880.96C1250.35 4874.39 1242.46 4858.86 1234.45 4841.12C1210.98 4838.5 1190.49 4848.98 1167.75 4866.15C1168.91 4871.74 1169.45 4876.77 1168.94 4880.96C1165.44 4909.4 1237.95 4991.46 995.407 4924.82C973.719 4918.86 955.355 4911.05 939.897 4901.76C887.606 4914.7 888.749 4893.51 892.536 4857.44C868.618 4821.66 863.601 4777.81 868.011 4734.15C844.968 4711.39 821.336 4727.43 839.38 4686.35C849.003 4664.44 872.047 4642.15 896.205 4621.99C912.858 4577.64 930.741 4544.61 932.896 4537.64C939.897 4515.03 859.883 4520 932.896 4475.97C1005.91 4431.94 1002.41 4430.92 1040.41 4414.3C1078.42 4397.68 1047.42 4403.5 1081.92 4383.46C1116.43 4363.42 1109.93 4332.24 1116.93 4307.4C1123.93 4282.55 1140.93 4242.12 1154.93 4189.87C1168.94 4137.62 1140.93 4158.86 1047.42 4103.19Z" fill="#136C61"/>
<path d="M939.897 4050.94C944.565 4049.79 972.603 4058.64 1047.42 4103.19C1140.93 4158.86 1168.94 4137.62 1154.93 4189.87C1140.93 4242.12 1123.93 4282.55 1116.93 4307.4C1109.93 4332.24 1116.43 4363.42 1081.92 4383.46C1047.42 4403.5 1078.42 4397.68 1040.41 4414.3C1002.41 4430.91 1005.91 4431.94 932.896 4475.97C859.883 4520 939.897 4515.03 932.896 4537.64C925.895 4560.26 752.865 4858.18 995.407 4924.82C1237.95 4991.46 1165.44 4909.4 1168.94 4880.96C1172.44 4852.52 1127.43 4786.05 1168.94 4764.64C1210.44 4743.22 1230.95 4859.55 1258.95 4880.96C1286.96 4902.38 1293.46 4739.46 1300.46 4785.88C1307.46 4832.31 1310.46 4855.95 1331.46 4872.57C1352.47 4889.19 1393.47 4907.17 1383.47 4933.21C1373.47 4959.25 1286.96 5046.11 1203.44 5062.73C1119.93 5079.35 1213.44 5128.17 1119.93 5138.79C1026.41 5149.42 1050.92 5151.64 1071.42 5199.27C1091.92 5246.9 891.388 5494.51 908.891 5509.93C926.394 5525.35 742.363 5571.6 995.406 5574C1248.45 5576.4 1071.92 5269.17 1168.94 5244.33C1265.95 5219.48 1247.95 5192.07 1282.96 5180.25C1317.96 5168.43 1341.97 5174.26 1383.47 5123.2C1424.98 5072.15 1386.97 5154.04 1431.98 5062.73C1476.99 4971.42 1550 5004.31 1543 4908.2C1536 4812.09 1407.48 5078.74 1383.47 5045.5C1359.47 5012.26 1507.55 4841.12 1431.98 4841.12C1252.83 4841.12 1275.95 4847.86 1234.45 4841.12C1195.11 4836.72 1164.14 4869.14 1116.93 4908.2C1057.92 4957.03 1026.41 4880.34 939.897 4901.76C853.382 4923.17 913.134 4851.15 889.13 4772.86C865.126 4694.57 815.376 4741 839.38 4686.35C863.384 4631.7 970.902 4574.65 970.902 4554.43C970.902 4534.22 946.898 4505.61 964.401 4494.99C978.404 4486.49 990.739 4463.01 1026.41 4452.33C1090.09 4428.52 1225.75 4378.77 1258.95 4370.27C1300.46 4359.65 1387.47 4333.44 1515.5 4284.78C1643.52 4236.13 1581.01 4201.69 1571.01 4160.06C1561 4118.43 1560.5 4151.84 1487.49 4116.21C1414.48 4080.57 1494.49 4068.58 1341.97 4063.96C1189.44 4059.33 1234.45 4033.12 1234.45 4050.94C1234.45 4093.05 1030.08 4029.92 939.897 4033.12V4050.94Z" stroke="#3782AF"/>
</g>
</g>
<defs>
<filter id="filter0_f_167_351" x="-355.802" y="-117.8" width="1435.6" height="1998.6" filterUnits="userSpaceOnUse" color-interpolation-filters="sRGB">
<feFlood flood-opacity="0" result="BackgroundImageFix"/>
<feBlend mode="normal" in="SourceGraphic" in2="BackgroundImageFix" result="shape"/>
<feGaussianBlur stdDeviation="164.65" result="effect1_foregroundBlur_167_351"/>
</filter>
<filter id="filter1_f_167_351" x="-53.8" y="1582.2" width="1435.6" height="1898.6" filterUnits="userSpaceOnUse" color-interpolation-filters="sRGB">
<feFlood flood-opacity="0" result="BackgroundImageFix"/>
<feBlend mode="normal" in="SourceGraphic" in2="BackgroundImageFix" result="shape"/>
<feGaussianBlur stdDeviation="164.65" result="effect1_foregroundBlur_167_351"/>
</filter>
<filter id="filter2_f_167_351" x="-427.842" y="3267.2" width="1421.64" height="2200.61" filterUnits="userSpaceOnUse" color-interpolation-filters="sRGB">
<feFlood flood-opacity="0" result="BackgroundImageFix"/>
<feBlend mode="normal" in="SourceGraphic" in2="BackgroundImageFix" result="shape"/>
<feGaussianBlur stdDeviation="164.65" result="effect1_foregroundBlur_167_351"/>
</filter>
<filter id="filter3_f_167_351" x="503.2" y="3703.2" width="1421.64" height="2200.61" filterUnits="userSpaceOnUse" color-interpolation-filters="sRGB">
<feFlood flood-opacity="0" result="BackgroundImageFix"/>
<feBlend mode="normal" in="SourceGraphic" in2="BackgroundImageFix" result="shape"/>
<feGaussianBlur stdDeviation="164.65" result="effect1_foregroundBlur_167_351"/>
</filter>
<clipPath id="clip0_167_351">
<rect width="1280" height="8160" fill="white"/>
</clipPath>
</defs>
</svg>
