<svg width="36" height="34" viewBox="0 0 36 34" fill="none" xmlns="http://www.w3.org/2000/svg">
<path d="M10.0117 28.9216L9.74513 30.0693L10.7558 29.4635L17.9995 25.1219L25.2442 29.5212L26.2572 30.1364L25.9909 28.9815L24.0939 20.7559L30.474 15.2728L31.3731 14.5001L30.1921 14.3956L21.7964 13.6527L18.4607 5.88049L18.0029 4.81386L17.5423 5.87926L14.2069 13.5935L5.81025 14.3364L4.63764 14.4402L5.52649 15.212L11.9085 20.7539L10.0117 28.9216ZM7.62373 32.963L10.3067 21.5401L10.376 21.2447L10.1461 21.0468L1.22677 13.3682L12.9781 12.3577L13.2771 12.332L13.395 12.0559L18.0012 1.27272L22.6074 12.0536L22.7253 12.3296L23.0243 12.3553L34.7733 13.3658L25.8539 21.0444L25.6239 21.2424L25.6934 21.5378L28.3785 32.9607L18.2583 26.8947L18.0011 26.7406L17.7441 26.8947L7.62373 32.963Z" fill="#FF4713" stroke="#FF4713"/>
</svg>
