<svg width="52" height="53" viewBox="0 0 52 53" fill="none" xmlns="http://www.w3.org/2000/svg">
<g clip-path="url(#clip0_130_228)">
<path d="M36.4 15.4523C36.2052 14.4733 35.63 13.6115 34.8006 13.0559C33.9712 12.5004 32.9553 12.2965 31.9758 12.489C31.4696 12.5652 30.9841 12.7436 30.5488 13.0132C30.1136 13.2828 29.7377 13.638 29.4439 14.0573C29.1501 14.4766 28.9446 14.9512 28.8398 15.4523C28.735 15.9535 28.7331 16.4707 28.8343 16.9725C28.9355 17.4744 29.1375 17.9505 29.4283 18.3719C29.719 18.7933 30.0923 19.1513 30.5256 19.424C30.9589 19.6968 31.443 19.8786 31.9487 19.9586C32.4544 20.0385 32.9711 20.0149 33.4673 19.8891C34.4389 19.6938 35.2945 19.1237 35.8489 18.3023C36.1275 17.8891 36.3192 17.4235 36.4124 16.9339C36.5056 16.4443 36.4983 15.9408 36.391 15.4541L36.4 15.4523ZM19.8609 32.6116L17.6948 31.1722L12.4661 34.0833L12.2858 34.1196C12.199 34.1422 12.1084 34.1464 12.0199 34.132C11.9314 34.1175 11.8469 34.0847 11.7718 34.0357L10.205 33.0101C10.0792 32.931 9.98464 32.8107 9.93742 32.6698C9.89021 32.5288 9.89323 32.3759 9.94598 32.2369L10.9406 29.3069C11.5587 27.5021 12.5998 25.8713 13.9769 24.5511C15.354 23.2308 17.0271 22.2593 18.8564 21.7178L21.0608 21.0671C22.0523 19.254 22.9865 17.6838 23.8633 16.3564C25.5043 13.7258 27.6341 11.4339 30.1376 9.60468C32.7385 7.98548 35.6305 6.88961 38.6514 6.37855C38.8333 6.3445 39.0214 6.38028 39.1781 6.47875C39.252 6.5235 39.3159 6.5831 39.3657 6.65379C39.4155 6.72449 39.45 6.80473 39.4672 6.88946C40.1349 9.88799 40.202 12.9891 39.6648 16.0137C38.9823 19.0317 37.7161 21.887 35.9374 24.4188C35.054 25.76 33.9616 27.2277 32.68 28.8273L32.9323 31.1026C33.1458 32.9971 32.9031 34.9151 32.2244 36.6966C31.5457 38.4782 30.4507 40.0715 29.0309 41.3438L26.733 43.3921C26.6407 43.4663 26.5319 43.5172 26.4158 43.5404C26.2426 43.5716 26.064 43.5413 25.9108 43.4546L24.3386 42.4021C24.2379 42.3384 24.1572 42.2477 24.1057 42.1403C24.0542 42.0329 24.034 41.9132 24.0473 41.7948L24.6479 35.7926L22.5468 34.3964M32.7161 28.82L24.6479 35.7926L32.7161 28.82ZM21.0608 21.0671L17.749 31.2082L21.0608 21.0671Z" fill="#FF4713"/>
<path d="M19.8609 32.6116L17.6948 31.1722L12.4661 34.0833L12.2858 34.1196C12.199 34.1422 12.1084 34.1464 12.0199 34.132C11.9314 34.1175 11.8469 34.0847 11.7718 34.0357L10.205 33.0101C10.0792 32.931 9.98464 32.8107 9.93742 32.6698C9.89021 32.5288 9.89323 32.3759 9.94598 32.2369L10.9406 29.3069C11.5587 27.5021 12.5998 25.8713 13.9769 24.5511C15.354 23.2308 17.0271 22.2593 18.8564 21.7178L21.0608 21.0671M21.0608 21.0671C22.0523 19.254 22.9865 17.6838 23.8633 16.3564C25.5043 13.7258 27.6341 11.4339 30.1376 9.60468C32.7385 7.98548 35.6305 6.88961 38.6514 6.37855C38.8333 6.3445 39.0214 6.38028 39.1781 6.47875C39.252 6.5235 39.3159 6.5831 39.3657 6.65379C39.4155 6.72449 39.45 6.80473 39.4672 6.88946C40.1349 9.88799 40.202 12.9891 39.6648 16.0137C38.9823 19.0317 37.7161 21.887 35.9374 24.4188C35.054 25.76 33.9616 27.2277 32.68 28.8273L32.9323 31.1026C33.1458 32.9971 32.9031 34.9151 32.2244 36.6966C31.5457 38.4782 30.4507 40.0715 29.0309 41.3438L26.733 43.3921C26.6407 43.4663 26.5319 43.5172 26.4158 43.5404C26.2426 43.5716 26.064 43.5413 25.9108 43.4546L24.3386 42.4021C24.2379 42.3384 24.1572 42.2477 24.1057 42.1403C24.0542 42.0329 24.034 41.9132 24.0473 41.7948L24.6479 35.7926M21.0608 21.0671L17.749 31.2082M24.6479 35.7926L22.5468 34.3964M24.6479 35.7926L32.7161 28.82M36.4 15.4523C36.2052 14.4733 35.63 13.6115 34.8006 13.0559C33.9712 12.5004 32.9553 12.2965 31.9758 12.489C31.4696 12.5652 30.9841 12.7436 30.5488 13.0132C30.1136 13.2828 29.7377 13.638 29.4439 14.0573C29.1501 14.4766 28.9446 14.9512 28.8398 15.4523C28.735 15.9535 28.7331 16.4707 28.8343 16.9725C28.9355 17.4744 29.1375 17.9505 29.4283 18.3719C29.719 18.7933 30.0923 19.1513 30.5256 19.424C30.9589 19.6968 31.443 19.8786 31.9487 19.9586C32.4544 20.0385 32.9711 20.0149 33.4673 19.8891C34.4389 19.6938 35.2945 19.1237 35.8489 18.3023C36.1275 17.8891 36.3192 17.4235 36.4124 16.9339C36.5056 16.4443 36.4983 15.9408 36.391 15.4541L36.4 15.4523Z" stroke="#FF4713" stroke-width="2" stroke-linecap="round" stroke-linejoin="round"/>
<path d="M18.0756 38.1858C21.5466 36.7921 26.7363 29.4992 26.6614 25.2653C22.7093 26.8779 17.9888 34.4514 18.0756 38.1858Z" fill="#FF4713" stroke="#FF4713" stroke-width="2" stroke-linecap="round" stroke-linejoin="round"/>
</g>
<defs>
<clipPath id="clip0_130_228">
<rect width="44.1353" height="44.1353" fill="white" transform="translate(0 9) rotate(-11.3955)"/>
</clipPath>
</defs>
</svg>
