<svg width="47" height="49" viewBox="0 0 47 49" fill="none" xmlns="http://www.w3.org/2000/svg">
<path d="M13.2946 13.6676C12.4628 13.4452 11.607 13.9386 11.3841 14.7719L11.106 15.8115L10.9769 16.2946L13.2946 13.6676ZM13.2946 13.6676C13.6968 13.7719 14.0391 14.0325 14.2467 14.3917L13.2946 13.6676ZM8.33996 22.0507C8.63322 20.9521 7.97956 19.8225 6.88009 19.5285L5.85573 19.2545L6.80715 15.697L10.8477 16.7776L11.3307 16.9068L11.4599 16.4237L11.8671 14.9011C12.0185 14.3348 12.6001 13.9995 13.1654 14.1507L13.1691 14.1516C13.4413 14.2222 13.6728 14.3983 13.8135 14.6414C13.9536 14.8858 13.9912 15.1753 13.9168 15.4453L13.9168 15.4453L13.9158 15.449L13.5127 16.9564L13.3835 17.4394L13.8665 17.5686L17.9149 18.6513L16.8343 22.6918L16.7051 23.1748L17.1882 23.304L18.6802 23.703L18.6802 23.7031L18.6857 23.7045C18.962 23.775 19.1972 23.9537 19.34 24.2006C19.4826 24.4473 19.5201 24.7425 19.4443 25.0175L19.4443 25.0175L19.4433 25.0211C19.3704 25.2939 19.19 25.5275 18.9437 25.6692C18.698 25.8092 18.4068 25.8449 18.1337 25.7685L18.1337 25.7685L18.1282 25.767L16.6362 25.368L16.1531 25.2388L16.024 25.7219L14.9499 29.7381L11.3845 28.7846L11.6519 27.7848C11.9461 26.6846 11.2939 25.5562 10.1938 25.262C9.09555 24.9683 7.96538 25.6197 7.67108 26.7201L7.40369 27.7199L3.84618 26.7685L4.7911 23.2353L5.81371 23.5088C6.34288 23.6541 6.90677 23.5812 7.38127 23.307L7.38128 23.307C7.85613 23.0325 8.20021 22.5803 8.33996 22.0507ZM8.33996 22.0507C8.33988 22.051 8.33979 22.0513 8.33971 22.0516L7.85668 21.9224L8.3402 22.0497C8.34012 22.05 8.34004 22.0504 8.33996 22.0507Z" fill="#FF4713" stroke="#FF4713"/>
<path d="M28.2555 40.3002L28.2554 40.3002L28.2529 40.3094C28.1016 40.8754 27.5203 41.2111 26.9531 41.0594L25.4702 40.6629L24.9872 40.5337L24.858 41.0167L23.7774 45.0573L20.2199 44.1058L20.4939 43.0815C20.7881 41.9814 20.1359 40.853 19.0358 40.5588C17.9357 40.2645 16.8073 40.9167 16.5131 42.0168L16.2391 43.0412L12.6816 42.0898L13.633 38.5323L14.642 38.8021C15.7421 39.0963 16.8705 38.4441 17.1648 37.344C17.3061 36.8155 17.2306 36.2541 16.9593 35.7816L16.9579 35.7793C16.684 35.3083 16.2352 34.9627 15.7067 34.8213L14.6976 34.5515L15.6577 30.9618L19.6982 32.0424L20.1812 32.1716L20.3104 31.6886L20.707 30.2057C20.8585 29.6391 21.4387 29.3038 22.0053 29.4553C22.5719 29.6068 22.9072 30.1871 22.7557 30.7536L22.3591 32.2365L22.2299 32.7195L22.713 32.8487L26.7535 33.9293L25.6708 37.9776L25.5416 38.4607L26.0246 38.5898L27.529 38.9922C27.7998 39.0686 28.0275 39.2486 28.1638 39.4935L28.1638 39.4935C28.3006 39.7393 28.3334 40.0299 28.2555 40.3002Z" fill="#FF4713" stroke="#FF4713"/>
<path d="M32.3791 34.9167L32.5083 34.4337L32.0252 34.3045L27.9769 33.2218L28.9218 29.6886L29.9461 29.9626C31.0462 30.2568 32.1746 29.6046 32.4689 28.5045C32.7626 27.4062 32.1112 26.2761 31.0108 25.9818L29.9864 25.7078L30.9378 22.1503L34.5032 23.1038L34.2288 24.1297C33.9351 25.2279 34.5865 26.3581 35.6869 26.6524C36.7855 26.9462 37.9158 26.2929 38.2096 25.1943L38.484 24.1684L42.0415 25.1199L39.0806 36.1912L35.04 35.1108L34.557 34.9816L34.4278 35.4646L34.0243 36.9735C33.8731 37.5386 33.291 37.875 32.7259 37.7239C32.1597 37.5725 31.8243 36.991 31.9755 36.4256L32.3791 34.9167Z" fill="#FF4713" stroke="#FF4713"/>
<path d="M20.2158 13.9196L20.345 13.4366L19.862 13.3074L18.3546 12.9043C17.7844 12.7518 17.4464 12.1672 17.5988 11.5957C17.7527 11.0304 18.3371 10.6946 18.905 10.8465L20.4123 11.2496L20.8954 11.3788L21.0245 10.8957L22.1051 6.8552L26.1457 7.9358L26.6287 8.06498L26.7579 7.58196L27.161 6.07458C27.2338 5.8025 27.4104 5.57138 27.654 5.43038C27.899 5.28989 28.1885 5.25173 28.4593 5.32417C29.0256 5.47561 29.3609 6.05712 29.2097 6.62248L28.8066 8.12987L28.6774 8.61289L29.1604 8.74207L33.201 9.82267L32.2496 13.3802L31.2252 13.1062C30.1254 12.8121 28.9948 13.465 28.701 14.5639C28.4065 15.6648 29.0568 16.7952 30.1555 17.0955L30.1555 17.0955L30.1581 17.0962L31.1825 17.3702L30.2356 20.9108L26.6781 19.9594L26.952 18.935C27.2461 17.8356 26.5948 16.7078 25.4958 16.4128C24.9688 16.2681 24.403 16.3399 23.929 16.6154C23.456 16.889 23.1093 17.34 22.9707 17.8721L22.6931 18.9102L19.1353 17.96L20.2158 13.9196Z" fill="#FF4713" stroke="#FF4713"/>
</svg>
