<svg width="29" height="28" viewBox="0 0 29 28" fill="none" xmlns="http://www.w3.org/2000/svg">
<path d="M26.9998 18.2798V13.9599C26.9998 12.258 26.6646 10.5727 26.0133 9.00034C25.362 7.42798 24.4074 5.99929 23.204 4.79586C22.0005 3.59242 20.5718 2.63781 18.9995 1.98651C17.4271 1.33522 15.7419 1 14.0399 1C12.338 1 10.6528 1.33522 9.08042 1.98651C7.50806 2.63781 6.07937 3.59242 4.87594 4.79586C3.6725 5.99929 2.71788 7.42798 2.06659 9.00034C1.41529 10.5727 1.08008 12.258 1.08008 13.9599V18.2798" stroke="#FF4713" stroke-width="2" stroke-linecap="round"/>
<path d="M21.605 18.6454C21.6292 18.6212 21.6541 18.5979 21.6798 18.5755M21.605 18.6454L21.6798 18.5755M21.605 18.6454C21.5808 18.6696 21.5575 18.6945 21.5351 18.7202M21.605 18.6454L21.5351 18.7202M21.6798 18.5755V18.7202H21.5351M21.6798 18.5755L21.5351 18.7202M1 23.0401V20.3602H1.07999H1.15998V23.0401H1ZM4.39995 18.3602H3.15998V18.2802V18.2002H4.39995V18.3602ZM6.39995 18.7202V18.5755C6.42557 18.5979 6.45052 18.6212 6.47473 18.6454C6.49894 18.6696 6.52226 18.6945 6.54464 18.7202H6.39995ZM6.75994 20.7202H6.91992V23.0401H6.75994V20.7202ZM6.57595 25.0401H6.74589C6.59973 25.4473 6.36471 25.8214 6.05297 26.1331C5.74123 26.4449 5.36712 26.6799 4.95996 26.8261V26.6561C5.7017 26.3722 6.29207 25.7819 6.57595 25.0401ZM2.95996 26.6561V26.8261C2.55281 26.6799 2.17869 26.4449 1.86695 26.1331C1.55521 25.8214 1.32019 25.4473 1.17404 25.0401H1.34397C1.62785 25.7819 2.21822 26.3722 2.95996 26.6561ZM26.9997 20.3602H27.0797V23.0401H26.9197V20.3602H26.9997ZM26.7357 25.0401H26.9057C26.7595 25.4473 26.5245 25.8214 26.2128 26.1331C25.901 26.4449 25.5269 26.6799 25.1198 26.8261V26.6561C25.8615 26.3722 26.4519 25.7819 26.7357 25.0401ZM23.1198 26.6561V26.8261C22.7126 26.6799 22.3385 26.4449 22.0268 26.1331C21.715 25.8214 21.48 25.4473 21.3338 25.0401H21.5038C21.7876 25.7819 22.378 26.3722 23.1198 26.6561ZM21.3198 23.0401H21.1598V20.7202H21.3198V23.0401ZM24.9197 18.2802V18.3602H23.6798V18.2002H24.9197V18.2802Z" fill="#FF4713" stroke="#FF4713" stroke-width="2"/>
</svg>
